<svg width="400" height="114" viewBox="0 0 400 114" fill="none" xmlns="http://www.w3.org/2000/svg">
<path fill-rule="evenodd" clip-rule="evenodd" d="M58 113C89.4802 113 115 87.9279 115 57C115 26.0721 89.4802 1 58 1C26.5198 1 1 26.0721 1 57C1 87.9279 26.5198 113 58 113Z" fill="white" stroke="#979797"/>
<path d="M240.949 56.3643C240.949 59.0114 240.503 61.3245 239.613 63.3037C238.722 65.2705 237.46 66.7734 235.827 67.8125C234.195 68.8516 232.29 69.3711 230.113 69.3711C227.985 69.3711 226.099 68.8516 224.453 67.8125C222.808 66.7611 221.528 65.2705 220.613 63.3408C219.71 61.3988 219.246 59.1536 219.221 56.6055V54.6572C219.221 52.0596 219.672 49.765 220.575 47.7734C221.478 45.7819 222.753 44.2604 224.398 43.209C226.055 42.1452 227.948 41.6133 230.075 41.6133C232.24 41.6133 234.145 42.139 235.79 43.1904C237.448 44.2295 238.722 45.7448 239.613 47.7363C240.503 49.7155 240.949 52.0225 240.949 54.6572V56.3643ZM237.405 54.6201C237.405 51.4163 236.761 48.9609 235.475 47.2539C234.188 45.5345 232.389 44.6748 230.075 44.6748C227.824 44.6748 226.049 45.5345 224.75 47.2539C223.464 48.9609 222.802 51.3359 222.765 54.3789V56.3643C222.765 59.4691 223.414 61.9121 224.713 63.6934C226.024 65.4622 227.824 66.3467 230.113 66.3467C232.413 66.3467 234.195 65.5117 235.456 63.8418C236.718 62.1595 237.367 59.7536 237.405 56.624V54.6201ZM260.472 61.9492H249.153L246.611 69H242.937L253.254 41.9844H256.371L266.706 69H263.051L260.472 61.9492ZM250.229 59.0176H259.414L254.812 46.3818L250.229 59.0176ZM276.877 56.4385L273.575 59.8711V69H270.012V41.9844H273.575V55.3438L285.58 41.9844H289.884L279.252 53.915L290.719 69H286.452L276.877 56.4385ZM299.332 60.4834L299.852 64.0459L300.612 60.8359L305.956 41.9844H308.962L314.176 60.8359L314.918 64.1016L315.493 60.4648L319.687 41.9844H323.268L316.718 69H313.471L307.904 49.3135L307.478 47.2539L307.051 49.3135L301.28 69H298.033L291.502 41.9844H295.065L299.332 60.4834ZM347.689 56.3643C347.689 59.0114 347.244 61.3245 346.353 63.3037C345.463 65.2705 344.201 66.7734 342.568 67.8125C340.935 68.8516 339.03 69.3711 336.853 69.3711C334.726 69.3711 332.839 68.8516 331.194 67.8125C329.549 66.7611 328.269 65.2705 327.353 63.3408C326.45 61.3988 325.986 59.1536 325.962 56.6055V54.6572C325.962 52.0596 326.413 49.765 327.316 47.7734C328.219 45.7819 329.493 44.2604 331.138 43.209C332.796 42.1452 334.689 41.6133 336.816 41.6133C338.981 41.6133 340.886 42.139 342.531 43.1904C344.189 44.2295 345.463 45.7448 346.353 47.7363C347.244 49.7155 347.689 52.0225 347.689 54.6572V56.3643ZM344.145 54.6201C344.145 51.4163 343.502 48.9609 342.216 47.2539C340.929 45.5345 339.129 44.6748 336.816 44.6748C334.565 44.6748 332.79 45.5345 331.491 47.2539C330.205 48.9609 329.543 51.3359 329.506 54.3789V56.3643C329.506 59.4691 330.155 61.9121 331.454 63.6934C332.765 65.4622 334.565 66.3467 336.853 66.3467C339.154 66.3467 340.935 65.5117 342.197 63.8418C343.459 62.1595 344.108 59.7536 344.145 56.624V54.6201ZM373.484 56.3643C373.484 59.0114 373.039 61.3245 372.148 63.3037C371.257 65.2705 369.996 66.7734 368.363 67.8125C366.73 68.8516 364.825 69.3711 362.648 69.3711C360.52 69.3711 358.634 68.8516 356.989 67.8125C355.344 66.7611 354.063 65.2705 353.148 63.3408C352.245 61.3988 351.781 59.1536 351.756 56.6055V54.6572C351.756 52.0596 352.208 49.765 353.111 47.7734C354.014 45.7819 355.288 44.2604 356.933 43.209C358.591 42.1452 360.483 41.6133 362.611 41.6133C364.776 41.6133 366.68 42.139 368.326 43.1904C369.983 44.2295 371.257 45.7448 372.148 47.7363C373.039 49.7155 373.484 52.0225 373.484 54.6572V56.3643ZM369.94 54.6201C369.94 51.4163 369.297 48.9609 368.01 47.2539C366.724 45.5345 364.924 44.6748 362.611 44.6748C360.359 44.6748 358.584 45.5345 357.286 47.2539C355.999 48.9609 355.337 51.3359 355.3 54.3789V56.3643C355.3 59.4691 355.95 61.9121 357.248 63.6934C358.56 65.4622 360.359 66.3467 362.648 66.3467C364.949 66.3467 366.73 65.5117 367.992 63.8418C369.253 62.1595 369.903 59.7536 369.94 56.624V54.6201ZM378.497 69V41.9844H386.123C388.473 41.9844 390.552 42.5039 392.358 43.543C394.164 44.582 395.555 46.0602 396.532 47.9775C397.522 49.8949 398.023 52.0967 398.035 54.583V56.3086C398.035 58.8568 397.54 61.0895 396.551 63.0068C395.574 64.9242 394.17 66.3962 392.339 67.4229C390.521 68.4495 388.399 68.9753 385.975 69H378.497ZM382.06 44.916V66.0869H385.808C388.554 66.0869 390.688 65.2334 392.209 63.5264C393.743 61.8193 394.51 59.3887 394.51 56.2344V54.6572C394.51 51.5895 393.786 49.2083 392.339 47.5137C390.904 45.8066 388.863 44.9408 386.216 44.916H382.06Z" fill="white"/>
</svg>
